<svg width="72" height="73" viewBox="0 0 72 73" fill="none" xmlns="http://www.w3.org/2000/svg">
<mask id="mask0_6_104" style="mask-type:alpha" maskUnits="userSpaceOnUse" x="0" y="0" width="72" height="73">
<rect y="0.5" width="72" height="72" fill="#D9D9D9"/>
</mask>
<g mask="url(#mask0_6_104)">
<path d="M57.15 65.3L48.375 56.6L41.775 63.2L39.675 61.1C38.525 59.95 37.95 58.525 37.95 56.825C37.95 55.125 38.525 53.7 39.675 52.55L52.35 39.875C53.5 38.725 54.925 38.15 56.625 38.15C58.325 38.15 59.75 38.725 60.9 39.875L63 41.975L56.4 48.575L65.1 57.35C65.7 57.95 66 58.65 66 59.45C66 60.25 65.7 60.95 65.1 61.55L61.35 65.3C60.75 65.9 60.05 66.2 59.25 66.2C58.45 66.2 57.75 65.9 57.15 65.3ZM66 18.2L31.95 52.25L32.325 52.55C33.475 53.7 34.05 55.125 34.05 56.825C34.05 58.525 33.475 59.95 32.325 61.1L30.225 63.2L23.625 56.6L14.85 65.3C14.25 65.9 13.55 66.2 12.75 66.2C11.95 66.2 11.25 65.9 10.65 65.3L6.89997 61.55C6.29997 60.95 5.99997 60.25 5.99997 59.45C5.99997 58.65 6.29997 57.95 6.89997 57.35L15.6 48.575L8.99997 41.975L11.1 39.875C12.25 38.725 13.675 38.15 15.375 38.15C17.075 38.15 18.5 38.725 19.65 39.875L19.95 40.25L54 6.20001H66V18.2ZM20.85 33.05L5.99997 18.2V6.20001H18L32.85 21.05L28.575 25.25L15.525 12.2H12V15.725L25.05 28.775L20.85 33.05ZM27.75 47.975L60 15.725V12.2H56.475L24.225 44.45L27.75 47.975Z" fill="#402C20"/>
</g>
</svg>
